<svg xmlns="http://www.w3.org/2000/svg" viewBox="0 0 142 42.44"><g id="Layer_2" data-name="Layer 2"><g id="Layer_1-2" data-name="Layer 1"><path d="M18.87 24.31c-1.62.18-3.61 3.48-3.36 2.36 2.54-7 6.83-12.23 11.26-17.31.4-.44 1.68 0 1.52-1-.47-1.36-3.62-3.2-5.55-2.53-1.42.5-3.32 3.8-4.37 5.38a98.93 98.93 0 0 0-7.06 12.43c-.87 1.82-3.07 5.53-2.85 6.89.28 1.83 4.32 3.65 6 1.85.59-.62.48-1.72.84-2.52 1.57-3.47 4.14-5.54 3.57-5.55zm13.49-6c-.69-1.37-1.15-2.65-.6-3.1.91-.73 4-1.74 4.8-2.07 2.08-.88 5.65-2.42 7.11-4.16a5.37 5.37 0 0 0 .83-6.1C43.1 0 35.66-.16 32.65.08 19.66 1.13 8 5.63.56 12.18c-2.7 2.37 5.11 6.11 8.06 4.71.61-.29-.33-.77-.56-1.44s-2-.26-.69-2.17c4.2-6.31 11.82-9 19.9-10.51 3.5-.66 9.9-.16 10.89 1.77s.2 3.87-1.79 5.56c-3.1 2.65-9.33 4.67-10.82 5.64s1.15 4.88 1.57 5.62C31.05 28.3 38 37.5 41.85 42.25c.45-.35-.41-.81-.33-1.35.84.12 1 1.74 1.68 1.51-1.39-3.61-1.2-4.41-3.09-8.33-1.4-2.93-7.31-14.87-7.75-15.82zm47.9-14a11 11 0 0 0-2.19-1.59 10.44 10.44 0 0 0-2.58-.86 2.06 2.06 0 0 0-2.33.73 8.37 8.37 0 0 0-1.55 2.61c-.16.43 0 .55.42.31s.84-1 1.13-1.23a1.17 1.17 0 0 1 1.2-.12c.64.37.89 3.72-2.09 9.6s-8.61 13.9-10.6 13a3.17 3.17 0 0 1-1.17-1.56c-.36-1 .37-3 1-4.27a16.62 16.62 0 0 1 5.63-6 7.48 7.48 0 0 1 2.79-.93 1.1 1.1 0 0 0 .49-.83c.08-.37-.06-.37-.44-.51a9.87 9.87 0 0 0-3.08-.25c-3.28 0-6.84 2.11-8.85 4.61-1.24 1.54-2.56 3.57-2.45 5.63a13.33 13.33 0 0 1-2 1.82 14.56 14.56 0 0 1-4.26 2.43c-2 .61-5 1.07-5.89-1.58-.68-2.16 1.68-5.24 3.38-6.78a8.64 8.64 0 0 1 2.72-2c.55-.2 1.12-.28 1.41.25a1.91 1.91 0 0 1-.29 1.85 8.27 8.27 0 0 1-1.8 2c-.65.56-1.88 1.51-1.88 1.51a9.43 9.43 0 0 1-1.24.87c-.17.23-.14.8-.17.82.91.34 2.7-.48 3.44-1a15.06 15.06 0 0 0 3.45-2.77c.68-.87 1.66-1.89 1.35-3a7.92 7.92 0 0 0-1.28-3c-.65-1-2.4-2.55-3.59-2.48a7.7 7.7 0 0 0-5 2.82c-3.67 3.95-4.19 5.84-4.66 8.61s1.33 4.68 3.57 5.95a5.14 5.14 0 0 0 4.43.55 16.91 16.91 0 0 0 7.06-3.82A20.48 20.48 0 0 0 56 24.24c.81 2.19 2.51 4.45 4.95 4.6A7.31 7.31 0 0 0 65 27.47 33.44 33.44 0 0 0 69.27 24a67.86 67.86 0 0 0 8.5-10.21 27.34 27.34 0 0 0 3.08-6.39 3.15 3.15 0 0 0-.59-3.12z" fill="#e01b22"/><path d="M93 16.19c0-1.65-.63-3.3-4.72-3.3h-7.07L78.06 28h7.39c4.42 0 6.88-2 6.88-5.08a3 3 0 0 0-2.14-3A3.51 3.51 0 0 0 93 16.19zm-7.3 8.73h-3.09l.72-3.43h2.77c1 0 2.29.1 2.29 1.5 0 1.63-1.31 1.93-2.69 1.93zm1-6.08h-2.82l.59-2.84h2.59c.84 0 2 .09 2 1.19s-.8 1.65-2.39 1.65zm17.4 1.84c-.54 2.39-1 4.41-3.68 4.41-1.41 0-2.26-.68-2.26-1.8a11.26 11.26 0 0 1 .35-2.29l1.76-8.09h-3.94l-1.72 7.9a13.91 13.91 0 0 0-.42 3.19c0 2.4 2.18 4.36 6.12 4.36 5.46 0 6.69-2.73 7.53-6.79l1.8-8.64h-3.94zm6.16 7.32h3.94l3.16-15.12h-3.94zm15-15.12h-3.94L118.16 28h9.45l.72-3.39h-5.53zm3.91 0l-.67 3.39h4.44L130.46 28h3.94l2.48-11.73h4.44l.68-3.39zm8.03 13.36v-.36h1.8v.36h-.69V28h-.43v-1.76zm2.78-.36l.54 1.52.55-1.52h.6V28h-.39v-1.71l-.59 1.71h-.34l-.59-1.72V28h-.39v-2.12z" fill="#756658"/></g></g></svg>